<svg width="24" height="24" viewBox="0 0 24 24" fill="none" xmlns="http://www.w3.org/2000/svg">
<path d="M24 12C24 9.81333 23.4667 7.81333 22.4 6C21.3333 4.13333 19.8667 2.66667 18 1.6C16.1867 0.533333 14.1867 0 12 0C9.81333 0 7.78667 0.533333 5.92 1.6C4.10667 2.66667 2.66667 4.13333 1.6 6C0.533333 7.81333 0 9.81333 0 12C0 13.76 0.373333 15.44 1.12 17.04C1.86667 18.64 2.90667 20 4.24 21.12L5.28 21.92C7.30667 23.3067 9.54667 24 12 24C14.4533 24 16.6933 23.3067 18.72 21.92L19.84 21.12C21.12 20 22.1333 18.64 22.88 17.04C23.6267 15.44 24 13.76 24 12ZM12 22.48C9.81333 22.48 7.81333 21.84 6 20.56L6.08 20C6.24 19.4667 6.45333 18.9867 6.72 18.56C6.98667 18.08 7.30667 17.6533 7.68 17.28C8.05333 16.9067 8.45333 16.5867 8.88 16.32C9.30667 16.0533 9.78667 15.8667 10.32 15.76C10.9067 15.6 11.4667 15.52 12 15.52C12.8 15.52 13.5733 15.68 14.32 16C15.12 16.2667 15.7867 16.6933 16.32 17.28C16.9067 17.8133 17.36 18.4533 17.68 19.2C17.84 19.6267 17.9733 20.08 18.08 20.56C16.2667 21.84 14.24 22.48 12 22.48ZM8.32 11.36C8.10667 10.88 8 10.3733 8 9.84C8 9.30667 8.10667 8.8 8.32 8.32C8.53333 7.84 8.8 7.44 9.12 7.12C9.49333 6.74667 9.92 6.45333 10.4 6.24C10.88 5.97333 11.4133 5.84 12 5.84C12.5867 5.84 13.0933 5.94667 13.52 6.16C14 6.37333 14.4267 6.66667 14.8 7.04C15.1733 7.41333 15.4667 7.84 15.68 8.32C15.8933 8.8 16 9.33333 16 9.92C16 10.4533 15.8933 10.96 15.68 11.44C15.4667 11.8667 15.1733 12.2667 14.8 12.64C14.4267 13.0133 14 13.3067 13.52 13.52C12.5067 13.9467 11.4667 13.9467 10.4 13.52C9.97333 13.3067 9.57333 13.0133 9.2 12.64C8.82667 12.2667 8.53333 11.84 8.32 11.36ZM19.44 19.36C19.44 19.36 19.44 19.3333 19.44 19.28V19.2C19.2267 18.4533 18.88 17.76 18.4 17.12C17.9733 16.48 17.44 15.92 16.8 15.44C16.32 15.0667 15.7867 14.7467 15.2 14.48C15.4667 14.32 15.7067 14.1333 15.92 13.92C16.2933 13.5467 16.6133 13.1467 16.88 12.72C17.4133 11.8667 17.6533 10.9067 17.6 9.84C17.6533 9.09333 17.52 8.37333 17.2 7.68C16.9333 6.98667 16.5333 6.37333 16 5.84C15.4667 5.30667 14.8533 4.90667 14.16 4.64C13.4667 4.37333 12.72 4.24 11.92 4.24C11.1733 4.24 10.4533 4.37333 9.76 4.64C9.06667 4.90667 8.45333 5.30667 7.92 5.84C7.44 6.37333 7.04 6.98667 6.72 7.68C6.45333 8.37333 6.32 9.09333 6.32 9.84C6.32 10.3733 6.4 10.9067 6.56 11.44C6.72 11.92 6.90667 12.3467 7.12 12.72C7.33333 13.0933 7.65333 13.4933 8.08 13.92C8.29333 14.1333 8.53333 14.3467 8.8 14.56C8.26667 14.7733 7.76 15.0667 7.28 15.44C6.64 15.92 6.08 16.48 5.6 17.12C5.17333 17.76 4.82667 18.48 4.56 19.28V19.36C3.6 18.4 2.85333 17.28 2.32 16C1.78667 14.72 1.52 13.3867 1.52 12C1.52 10.08 1.97333 8.32 2.88 6.72C3.84 5.12 5.12 3.86667 6.72 2.96C8.32 2 10.08 1.52 12 1.52C13.92 1.52 15.68 2 17.28 2.96C18.88 3.86667 20.1333 5.12 21.04 6.72C22 8.32 22.48 10.08 22.48 12C22.48 13.3867 22.2133 14.72 21.68 16C21.2 17.28 20.4533 18.4 19.44 19.36Z" fill="#808080"/>
</svg>
