<svg width="23" height="24" viewBox="0 0 23 24" fill="none" xmlns="http://www.w3.org/2000/svg">
<path d="M14.28 0C12.6267 0 11.1067 0.453333 9.72 1.36C8.38667 2.21333 7.37333 3.38667 6.68 4.88C6.04 6.37333 5.82667 7.92 6.04 9.52C6.30667 11.12 6.97333 12.5067 8.04 13.68L0.04 22.88L1.16 23.84L9.16 14.72C10.6 15.84 12.2 16.4267 13.96 16.48C15.7733 16.5333 17.4267 16.0533 18.92 15.04C20.4133 14.0267 21.4533 12.6667 22.04 10.96C22.6267 9.25333 22.6533 7.54667 22.12 5.84C21.5867 4.08 20.5733 2.66667 19.08 1.6C17.64 0.533333 16.04 0 14.28 0ZM14.28 14.96C13.0533 14.96 11.9067 14.6667 10.84 14.08C9.82667 13.4933 9 12.6933 8.36 11.68C7.77333 10.6133 7.48 9.46667 7.48 8.24C7.48 7.01333 7.77333 5.89333 8.36 4.88C9 3.81333 9.82667 2.98667 10.84 2.4C11.9067 1.81333 13.0533 1.52 14.28 1.52C15.5067 1.52 16.6267 1.81333 17.64 2.4C18.6533 2.98667 19.4533 3.81333 20.04 4.88C20.68 5.89333 21 7.01333 21 8.24C21 9.46667 20.68 10.6133 20.04 11.68C19.4533 12.6933 18.6533 13.52 17.64 14.16C16.6267 14.7467 15.5067 15.04 14.28 15.04V14.96Z" fill="#808080"/>
</svg>
