<svg width="20" height="25" viewBox="0 0 20 25" fill="none" xmlns="http://www.w3.org/2000/svg">
<path d="M19.04 8.24C19.04 7.54667 18.8533 6.90667 18.48 6.32C18.1067 5.68 17.6 5.2 16.96 4.88C16.32 4.56 15.6533 4.42667 14.96 4.48C14.2667 4.53333 13.6267 4.77333 13.04 5.2C12.4533 5.62667 12.0267 6.18667 11.76 6.88C11.5467 7.52 11.4933 8.18667 11.6 8.88C11.7067 9.57333 12 10.1867 12.48 10.72C12.96 11.2 13.5467 11.5467 14.24 11.76C13.9733 12.2933 13.6 12.72 13.12 13.04C12.64 13.3067 12.1067 13.44 11.52 13.44H8.56C7.38667 13.44 6.37333 13.84 5.52 14.64V7.36C6.48 7.2 7.22667 6.74667 7.76 6C8.34667 5.2 8.58667 4.32 8.48 3.36C8.42667 2.4 8.02667 1.6 7.28 0.959999C6.58667 0.32 5.76 0 4.8 0C3.84 0 2.98667 0.32 2.24 0.959999C1.54667 1.6 1.14667 2.4 1.04 3.36C0.986667 4.32 1.22667 5.2 1.76 6C2.34667 6.74667 3.12 7.2 4.08 7.36V16.48C3.12 16.6933 2.34667 17.1733 1.76 17.92C1.17333 18.6667 0.906667 19.52 0.96 20.48C1.06667 21.44 1.44 22.2667 2.08 22.96C2.77333 23.6 3.6 23.9467 4.56 24C5.52 24.0533 6.37333 23.7867 7.12 23.2C7.86667 22.6133 8.32 21.84 8.48 20.88C8.64 19.92 8.48 19.04 8 18.24C7.52 17.44 6.8 16.9067 5.84 16.64C6.10667 16.1067 6.48 15.7067 6.96 15.44C7.44 15.12 7.97333 14.96 8.56 14.96H11.52C12.48 14.96 13.3333 14.6933 14.08 14.16C14.88 13.5733 15.44 12.8267 15.76 11.92C16.6667 11.8133 17.44 11.4133 18.08 10.72C18.72 9.97333 19.04 9.14667 19.04 8.24ZM2.56 3.76C2.56 3.12 2.77333 2.58667 3.2 2.16C3.62667 1.73333 4.16 1.52 4.8 1.52C5.44 1.52 5.97333 1.73333 6.4 2.16C6.82667 2.58667 7.04 3.12 7.04 3.76C7.04 4.34667 6.82667 4.88 6.4 5.36C5.97333 5.78667 5.44 6 4.8 6C4.16 6 3.62667 5.78667 3.2 5.36C2.77333 4.88 2.56 4.34667 2.56 3.76ZM7.04 20.16C7.04 20.8 6.82667 21.3333 6.4 21.76C5.97333 22.1867 5.44 22.4 4.8 22.4C4.16 22.4 3.62667 22.1867 3.2 21.76C2.77333 21.3333 2.56 20.8267 2.56 20.24C2.56 19.6 2.77333 19.0667 3.2 18.64C3.62667 18.16 4.16 17.92 4.8 17.92C5.44 17.92 5.97333 18.16 6.4 18.64C6.82667 19.0667 7.04 19.5733 7.04 20.16ZM15.28 10.48C14.64 10.48 14.1067 10.2667 13.68 9.84C13.2533 9.36 13.04 8.82667 13.04 8.24C13.04 7.6 13.2533 7.06667 13.68 6.64C14.1067 6.21333 14.6133 6 15.2 6C15.84 6 16.3733 6.21333 16.8 6.64C17.28 7.06667 17.52 7.6 17.52 8.24C17.52 8.82667 17.28 9.36 16.8 9.84C16.3733 10.2667 15.8667 10.48 15.28 10.48Z" fill="#808080"/>
</svg>
